HIERARCHY
ROOT Hips
{
  OFFSET 0.00000 0.00000 0.05000
  CHANNELS 6 Xposition Yposition Zposition Zrotation Xrotation Yrotation
  JOINT J1
  {
    OFFSET -0.03065 1.44491 0.05000
    CHANNELS 3 Zrotation Xrotation Yrotation
    JOINT J0
    {
      OFFSET 0.01581 0.59036 0.05000
      CHANNELS 3 Zrotation Xrotation Yrotation
    }
    JOINT J2
    {
      OFFSET -0.46106 0.00773 0.05000
      CHANNELS 3 Zrotation Xrotation Yrotation
      JOINT J3
      {
        OFFSET -0.18187 -0.68062 0.05000
        CHANNELS 3 Zrotation Xrotation Yrotation
        JOINT J4
        {
          OFFSET -0.04489 -0.59788 0.05000
          CHANNELS 3 Zrotation Xrotation Yrotation
        }
      }
    }
    JOINT J5
    {
      OFFSET 0.43895 -0.00024 0.05000
      CHANNELS 3 Zrotation Xrotation Yrotation
      JOINT J6
      {
        OFFSET 0.18944 -0.67310 0.05000
        CHANNELS 3 Zrotation Xrotation Yrotation
        JOINT J7
        {
          OFFSET 0.07576 -0.63575 0.05000
          CHANNELS 3 Zrotation Xrotation Yrotation
        }
      }
    }
  }
  JOINT J9
  {
    OFFSET -0.31013 -0.00768 0.05000
    CHANNELS 3 Zrotation Xrotation Yrotation
    JOINT J10
    {
      OFFSET 0.01518 -1.05887 0.05000
      CHANNELS 3 Zrotation Xrotation Yrotation
      JOINT J11
      {
        OFFSET 0.00780 -0.96134 0.05000
        CHANNELS 3 Zrotation Xrotation Yrotation
      }
    }
  }
  JOINT J12
  {
    OFFSET 0.27274 0.00729 0.05000
    CHANNELS 3 Zrotation Xrotation Yrotation
    JOINT J13
    {
      OFFSET 0.12064 -1.05932 0.05000
      CHANNELS 3 Zrotation Xrotation Yrotation
      JOINT J14
      {
        OFFSET 0.04567 -0.95305 0.05000
        CHANNELS 3 Zrotation Xrotation Yrotation
      }
    }
  }
}
MOTION
Frames: 44
Frame Time: 0.033333
2.50184 -5.14781 0.05000 0 0 0 90.01 0.00 0.00 84.94 0.00 0.00 176.94 0.00 0.00 -174.19 0.00 0.00 112.36 0.00 0.00 -4.93 0.00 0.00 -75.82 0.00 0.00 -84.13 0.00 0.00 179.09 0.00 0.00 -89.98 0.00 0.00 -95.87 0.00 0.00 -1.62 0.00 0.00 -89.98 0.00 0.00 -87.38 0.00 0.00
2.50176 -5.15213 0.05000 0 0 0 90.18 0.00 0.00 84.51 0.00 0.00 176.88 0.00 0.00 -172.29 0.00 0.00 103.95 0.00 0.00 -4.41 0.00 0.00 -75.89 0.00 0.00 -83.74 0.00 0.00 179.10 0.00 0.00 -89.98 0.00 0.00 -95.87 0.00 0.00 -0.85 0.00 0.00 -89.97 0.00 0.00 -87.39 0.00 0.00
2.50177 -5.15215 0.05000 0 0 0 90.36 0.00 0.00 84.09 0.00 0.00 176.86 0.00 0.00 -170.57 0.00 0.00 94.64 0.00 0.00 -4.42 0.00 0.00 -75.48 0.00 0.00 -83.76 0.00 0.00 -180.00 0.00 0.00 -89.98 0.00 0.00 -96.08 0.00 0.00 -0.85 0.00 0.00 -89.97 0.00 0.00 -87.39 0.00 0.00
2.50181 -5.15214 0.05000 0 0 0 90.53 0.00 0.00 84.09 0.00 0.00 176.85 0.00 0.00 -168.96 0.00 0.00 83.42 0.00 0.00 -4.42 0.00 0.00 -75.15 0.00 0.00 -83.74 0.00 0.00 -180.00 0.00 0.00 -89.98 0.00 0.00 -96.06 0.00 0.00 -0.85 0.00 0.00 -89.97 0.00 0.00 -87.40 0.00 0.00
2.50185 -5.15215 0.05000 0 0 0 90.54 0.00 0.00 84.54 0.00 0.00 176.88 0.00 0.00 -167.81 0.00 0.00 73.20 0.00 0.00 -4.43 0.00 0.00 -75.16 0.00 0.00 -83.73 0.00 0.00 179.99 0.00 0.00 -89.99 0.00 0.00 -95.82 0.00 0.00 -0.86 0.00 0.00 -89.97 0.00 0.00 -87.40 0.00 0.00
2.50188 -5.15214 0.05000 0 0 0 90.54 0.00 0.00 84.99 0.00 0.00 176.88 0.00 0.00 -167.15 0.00 0.00 64.85 0.00 0.00 -4.94 0.00 0.00 -75.09 0.00 0.00 -83.71 0.00 0.00 179.99 0.00 0.00 -89.99 0.00 0.00 -95.82 0.00 0.00 -0.86 0.00 0.00 -89.97 0.00 0.00 -87.41 0.00 0.00
2.50187 -5.14782 0.05000 0 0 0 90.54 0.00 0.00 85.43 0.00 0.00 176.91 0.00 0.00 -166.69 0.00 0.00 59.78 0.00 0.00 -5.45 0.00 0.00 -75.01 0.00 0.00 -83.69 0.00 0.00 179.98 0.00 0.00 -89.99 0.00 0.00 -96.03 0.00 0.00 -1.64 0.00 0.00 -89.97 0.00 0.00 -87.42 0.00 0.00
2.50181 -5.14350 0.05000 0 0 0 90.54 0.00 0.00 85.87 0.00 0.00 176.35 0.00 0.00 -165.96 0.00 0.00 57.59 0.00 0.00 -5.46 0.00 0.00 -75.11 0.00 0.00 -83.65 0.00 0.00 179.97 0.00 0.00 -89.99 0.00 0.00 -96.03 0.00 0.00 -2.41 0.00 0.00 -89.97 0.00 0.00 -87.41 0.00 0.00
2.50175 -5.13913 0.05000 0 0 0 90.54 0.00 0.00 86.28 0.00 0.00 175.78 0.00 0.00 -165.51 0.00 0.00 58.66 0.00 0.00 -5.46 0.00 0.00 -75.12 0.00 0.00 -83.65 0.00 0.00 179.96 0.00 0.00 -89.99 0.00 0.00 -96.03 0.00 0.00 -3.19 0.00 0.00 -89.96 0.00 0.00 -87.41 0.00 0.00
2.50171 -5.13909 0.05000 0 0 0 90.71 0.00 0.00 85.83 0.00 0.00 175.74 0.00 0.00 -165.79 0.00 0.00 62.45 0.00 0.00 -5.41 0.00 0.00 -75.12 0.00 0.00 -83.66 0.00 0.00 179.07 0.00 0.00 -89.99 0.00 0.00 -96.26 0.00 0.00 -3.19 0.00 0.00 -89.96 0.00 0.00 -87.41 0.00 0.00
2.50167 -5.14341 0.05000 0 0 0 90.71 0.00 0.00 85.79 0.00 0.00 175.17 0.00 0.00 -166.08 0.00 0.00 68.71 0.00 0.00 -5.42 0.00 0.00 -75.12 0.00 0.00 -83.67 0.00 0.00 179.07 0.00 0.00 -89.99 0.00 0.00 -96.02 0.00 0.00 -2.41 0.00 0.00 -89.96 0.00 0.00 -87.41 0.00 0.00
2.50171 -5.14773 0.05000 0 0 0 90.53 0.00 0.00 85.76 0.00 0.00 175.17 0.00 0.00 -166.83 0.00 0.00 77.00 0.00 0.00 -5.47 0.00 0.00 -75.12 0.00 0.00 -83.68 0.00 0.00 179.08 0.00 0.00 -89.99 0.00 0.00 -95.78 0.00 0.00 -1.64 0.00 0.00 -89.96 0.00 0.00 -87.41 0.00 0.00
2.50176 -5.14776 0.05000 0 0 0 90.36 0.00 0.00 85.73 0.00 0.00 175.73 0.00 0.00 -168.45 0.00 0.00 86.32 0.00 0.00 -5.52 0.00 0.00 -75.11 0.00 0.00 -83.69 0.00 0.00 179.08 0.00 0.00 -90.00 0.00 0.00 -95.55 0.00 0.00 -1.64 0.00 0.00 -89.97 0.00 0.00 -87.41 0.00 0.00
2.50180 -5.15208 0.05000 0 0 0 90.19 0.00 0.00 85.72 0.00 0.00 176.30 0.00 0.00 -170.51 0.00 0.00 95.56 0.00 0.00 -5.52 0.00 0.00 -75.43 0.00 0.00 -83.70 0.00 0.00 178.18 0.00 0.00 -90.00 0.00 0.00 -95.55 0.00 0.00 -0.87 0.00 0.00 -89.97 0.00 0.00 -87.41 0.00 0.00
2.50184 -5.15212 0.05000 0 0 0 90.02 0.00 0.00 85.71 0.00 0.00 176.32 0.00 0.00 -172.17 0.00 0.00 104.14 0.00 0.00 -5.51 0.00 0.00 -75.76 0.00 0.00 -83.70 0.00 0.00 179.08 0.00 0.00 -90.00 0.00 0.00 -95.33 0.00 0.00 -0.87 0.00 0.00 -89.97 0.00 0.00 -87.41 0.00 0.00
2.50186 -5.14784 0.05000 0 0 0 90.01 0.00 0.00 85.25 0.00 0.00 176.90 0.00 0.00 -173.80 0.00 0.00 110.66 0.00 0.00 -5.45 0.00 0.00 -76.09 0.00 0.00 -83.70 0.00 0.00 179.08 0.00 0.00 -90.00 0.00 0.00 -95.35 0.00 0.00 -1.65 0.00 0.00 -89.97 0.00 0.00 -87.41 0.00 0.00
2.50186 -5.14353 0.05000 0 0 0 90.01 0.00 0.00 85.24 0.00 0.00 176.91 0.00 0.00 -174.66 0.00 0.00 115.05 0.00 0.00 -5.40 0.00 0.00 -76.42 0.00 0.00 -83.71 0.00 0.00 179.07 0.00 0.00 -90.00 0.00 0.00 -95.38 0.00 0.00 -2.42 0.00 0.00 -89.98 0.00 0.00 -87.41 0.00 0.00
2.50183 -5.14352 0.05000 0 0 0 90.01 0.00 0.00 85.26 0.00 0.00 176.94 0.00 0.00 -175.04 0.00 0.00 116.76 0.00 0.00 -5.39 0.00 0.00 -76.41 0.00 0.00 -83.71 0.00 0.00 179.08 0.00 0.00 -89.99 0.00 0.00 -95.40 0.00 0.00 -2.42 0.00 0.00 -89.98 0.00 0.00 -87.41 0.00 0.00
2.50181 -5.14357 0.05000 0 0 0 90.01 0.00 0.00 85.28 0.00 0.00 176.94 0.00 0.00 -175.01 0.00 0.00 116.56 0.00 0.00 -5.44 0.00 0.00 -76.08 0.00 0.00 -83.71 0.00 0.00 179.98 0.00 0.00 -89.99 0.00 0.00 -95.40 0.00 0.00 -2.42 0.00 0.00 -89.97 0.00 0.00 -87.41 0.00 0.00
2.50179 -5.14360 0.05000 0 0 0 90.01 0.00 0.00 85.31 0.00 0.00 176.93 0.00 0.00 -173.46 0.00 0.00 113.30 0.00 0.00 -5.50 0.00 0.00 -75.74 0.00 0.00 -83.70 0.00 0.00 179.98 0.00 0.00 -89.99 0.00 0.00 -95.38 0.00 0.00 -2.42 0.00 0.00 -89.97 0.00 0.00 -87.41 0.00 0.00
2.50178 -5.14789 0.05000 0 0 0 90.02 0.00 0.00 85.35 0.00 0.00 176.92 0.00 0.00 -171.77 0.00 0.00 108.59 0.00 0.00 -5.55 0.00 0.00 -75.41 0.00 0.00 -83.70 0.00 0.00 179.99 0.00 0.00 -89.99 0.00 0.00 -95.35 0.00 0.00 -1.64 0.00 0.00 -89.97 0.00 0.00 -87.41 0.00 0.00
2.50172 -5.15229 0.05000 0 0 0 90.19 0.00 0.00 85.39 0.00 0.00 176.91 0.00 0.00 -170.01 0.00 0.00 101.15 0.00 0.00 -5.56 0.00 0.00 -75.09 0.00 0.00 -83.68 0.00 0.00 180.00 0.00 0.00 -89.76 0.00 0.00 -95.33 0.00 0.00 -0.86 0.00 0.00 -89.97 0.00 0.00 -87.41 0.00 0.00
2.50170 -5.15664 0.05000 0 0 0 90.36 0.00 0.00 85.41 0.00 0.00 176.88 0.00 0.00 -167.92 0.00 0.00 93.29 0.00 0.00 -5.50 0.00 0.00 -75.44 0.00 0.00 -83.27 0.00 0.00 -179.99 0.00 0.00 -89.76 0.00 0.00 -95.55 0.00 0.00 -0.08 0.00 0.00 -89.97 0.00 0.00 -87.41 0.00 0.00
2.50165 -5.15665 0.05000 0 0 0 90.53 0.00 0.00 85.44 0.00 0.00 176.31 0.00 0.00 -165.44 0.00 0.00 83.88 0.00 0.00 -5.46 0.00 0.00 -75.71 0.00 0.00 -83.29 0.00 0.00 -179.99 0.00 0.00 -89.76 0.00 0.00 -95.55 0.00 0.00 -0.08 0.00 0.00 -89.96 0.00 0.00 -87.41 0.00 0.00
2.50154 -5.15663 0.05000 0 0 0 90.70 0.00 0.00 85.48 0.00 0.00 176.32 0.00 0.00 -164.56 0.00 0.00 75.38 0.00 0.00 -5.41 0.00 0.00 -76.07 0.00 0.00 -83.27 0.00 0.00 -179.99 0.00 0.00 -89.76 0.00 0.00 -95.55 0.00 0.00 -0.08 0.00 0.00 -89.96 0.00 0.00 -87.41 0.00 0.00
2.50144 -5.15667 0.05000 0 0 0 90.86 0.00 0.00 85.94 0.00 0.00 176.32 0.00 0.00 -163.92 0.00 0.00 67.28 0.00 0.00 -5.36 0.00 0.00 -76.77 0.00 0.00 -82.87 0.00 0.00 -179.99 0.00 0.00 -89.77 0.00 0.00 -95.55 0.00 0.00 -0.08 0.00 0.00 -89.96 0.00 0.00 -87.41 0.00 0.00
2.49710 -5.15659 0.05000 0 0 0 90.69 0.00 0.00 86.39 0.00 0.00 176.32 0.00 0.00 -163.75 0.00 0.00 62.06 0.00 0.00 -5.35 0.00 0.00 -77.48 0.00 0.00 -82.48 0.00 0.00 -180.00 0.00 0.00 -90.00 0.00 0.00 -95.52 0.00 0.00 -0.09 0.00 0.00 -89.73 0.00 0.00 -87.40 0.00 0.00
2.49273 -5.15656 0.05000 0 0 0 90.52 0.00 0.00 86.83 0.00 0.00 176.32 0.00 0.00 -163.95 0.00 0.00 58.86 0.00 0.00 -5.36 0.00 0.00 -77.84 0.00 0.00 -82.48 0.00 0.00 179.99 0.00 0.00 -90.00 0.00 0.00 -95.26 0.00 0.00 -0.09 0.00 0.00 -89.49 0.00 0.00 -87.39 0.00 0.00
2.48837 -5.15660 0.05000 0 0 0 90.36 0.00 0.00 87.26 0.00 0.00 176.32 0.00 0.00 -164.41 0.00 0.00 59.08 0.00 0.00 -5.37 0.00 0.00 -78.27 0.00 0.00 -82.04 0.00 0.00 179.99 0.00 0.00 -90.01 0.00 0.00 -95.02 0.00 0.00 -0.09 0.00 0.00 -89.26 0.00 0.00 -87.39 0.00 0.00
2.48400 -5.15673 0.05000 0 0 0 90.19 0.00 0.00 87.68 0.00 0.00 175.80 0.00 0.00 -164.43 0.00 0.00 61.78 0.00 0.00 -4.87 0.00 0.00 -78.68 0.00 0.00 -81.65 0.00 0.00 -180.00 0.00 0.00 -90.00 0.00 0.00 -95.02 0.00 0.00 -0.09 0.00 0.00 -89.02 0.00 0.00 -87.39 0.00 0.00
2.47965 -5.15681 0.05000 0 0 0 90.03 0.00 0.00 87.68 0.00 0.00 175.85 0.00 0.00 -165.08 0.00 0.00 67.43 0.00 0.00 -4.88 0.00 0.00 -78.68 0.00 0.00 -81.64 0.00 0.00 -179.99 0.00 0.00 -89.99 0.00 0.00 -94.78 0.00 0.00 -0.08 0.00 0.00 -88.79 0.00 0.00 -87.39 0.00 0.00
2.47960 -5.15690 0.05000 0 0 0 90.03 0.00 0.00 87.68 0.00 0.00 175.90 0.00 0.00 -166.22 0.00 0.00 74.58 0.00 0.00 -4.39 0.00 0.00 -78.75 0.00 0.00 -81.64 0.00 0.00 -180.00 0.00 0.00 -89.99 0.00 0.00 -94.77 0.00 0.00 -0.09 0.00 0.00 -88.79 0.00 0.00 -87.39 0.00 0.00
2.47956 -5.15693 0.05000 0 0 0 90.03 0.00 0.00 87.68 0.00 0.00 175.96 0.00 0.00 -167.76 0.00 0.00 83.64 0.00 0.00 -3.88 0.00 0.00 -78.84 0.00 0.00 -81.61 0.00 0.00 180.00 0.00 0.00 -89.98 0.00 0.00 -94.79 0.00 0.00 -0.09 0.00 0.00 -88.80 0.00 0.00 -87.38 0.00 0.00
2.47950 -5.15690 0.05000 0 0 0 90.03 0.00 0.00 87.67 0.00 0.00 176.56 0.00 0.00 -169.76 0.00 0.00 92.68 0.00 0.00 -3.38 0.00 0.00 -79.25 0.00 0.00 -81.20 0.00 0.00 179.99 0.00 0.00 -89.97 0.00 0.00 -94.81 0.00 0.00 -0.09 0.00 0.00 -88.81 0.00 0.00 -87.38 0.00 0.00
2.47946 -5.15685 0.05000 0 0 0 90.04 0.00 0.00 87.67 0.00 0.00 176.61 0.00 0.00 -171.75 0.00 0.00 101.98 0.00 0.00 -3.41 0.00 0.00 -79.27 0.00 0.00 -80.79 0.00 0.00 179.98 0.00 0.00 -89.98 0.00 0.00 -94.85 0.00 0.00 -0.10 0.00 0.00 -88.82 0.00 0.00 -87.37 0.00 0.00
2.47940 -5.15687 0.05000 0 0 0 90.04 0.00 0.00 87.67 0.00 0.00 176.65 0.00 0.00 -173.38 0.00 0.00 110.19 0.00 0.00 -2.93 0.00 0.00 -79.34 0.00 0.00 -80.38 0.00 0.00 179.97 0.00 0.00 -89.75 0.00 0.00 -94.88 0.00 0.00 -0.88 0.00 0.00 -88.82 0.00 0.00 -87.37 0.00 0.00
2.47924 -5.15689 0.05000 0 0 0 90.20 0.00 0.00 87.68 0.00 0.00 176.65 0.00 0.00 -174.56 0.00 0.00 117.12 0.00 0.00 -2.93 0.00 0.00 -79.35 0.00 0.00 -80.04 0.00 0.00 179.97 0.00 0.00 -89.76 0.00 0.00 -94.44 0.00 0.00 -1.65 0.00 0.00 -88.83 0.00 0.00 -87.36 0.00 0.00
2.47902 -5.15700 0.05000 0 0 0 90.37 0.00 0.00 87.68 0.00 0.00 176.12 0.00 0.00 -174.60 0.00 0.00 122.33 0.00 0.00 -2.94 0.00 0.00 -79.34 0.00 0.00 -79.66 0.00 0.00 179.97 0.00 0.00 -89.76 0.00 0.00 -93.96 0.00 0.00 -2.42 0.00 0.00 -89.05 0.00 0.00 -87.13 0.00 0.00
2.47454 -5.15707 0.05000 0 0 0 90.37 0.00 0.00 87.68 0.00 0.00 176.12 0.00 0.00 -173.48 0.00 0.00 126.54 0.00 0.00 -3.49 0.00 0.00 -78.66 0.00 0.00 -80.03 0.00 0.00 179.98 0.00 0.00 -89.52 0.00 0.00 -93.46 0.00 0.00 -2.38 0.00 0.00 -89.27 0.00 0.00 -86.87 0.00 0.00
2.46994 -5.15714 0.05000 0 0 0 90.37 0.00 0.00 87.68 0.00 0.00 176.64 0.00 0.00 -171.91 0.00 0.00 129.24 0.00 0.00 -4.04 0.00 0.00 -78.31 0.00 0.00 -80.02 0.00 0.00 180.00 0.00 0.00 -89.51 0.00 0.00 -92.69 0.00 0.00 -2.37 0.00 0.00 -89.26 0.00 0.00 -86.61 0.00 0.00
2.46526 -5.15715 0.05000 0 0 0 90.53 0.00 0.00 87.68 0.00 0.00 176.59 0.00 0.00 -169.14 0.00 0.00 131.58 0.00 0.00 -4.56 0.00 0.00 -77.97 0.00 0.00 -80.07 0.00 0.00 -179.99 0.00 0.00 -89.50 0.00 0.00 -92.17 0.00 0.00 -1.60 0.00 0.00 -89.25 0.00 0.00 -86.33 0.00 0.00
2.45635 -5.15706 0.05000 0 0 0 90.37 0.00 0.00 87.66 0.00 0.00 176.07 0.00 0.00 -165.52 0.00 0.00 134.45 0.00 0.00 -5.19 0.00 0.00 -77.54 0.00 0.00 -79.68 0.00 0.00 -179.98 0.00 0.00 -89.27 0.00 0.00 -91.89 0.00 0.00 -0.82 0.00 0.00 -88.99 0.00 0.00 -86.08 0.00 0.00
2.44740 -5.15256 0.05000 0 0 0 90.20 0.00 0.00 87.66 0.00 0.00 176.06 0.00 0.00 -161.69 0.00 0.00 138.45 0.00 0.00 -5.83 0.00 0.00 -77.13 0.00 0.00 -79.82 0.00 0.00 -179.97 0.00 0.00 -89.04 0.00 0.00 -91.35 0.00 0.00 -0.82 0.00 0.00 -88.51 0.00 0.00 -86.06 0.00 0.00
2.44260 -5.15246 0.05000 0 0 0 90.36 0.00 0.00 87.23 0.00 0.00 175.54 0.00 0.00 -157.30 0.00 0.00 143.76 0.00 0.00 -5.90 0.00 0.00 -76.70 0.00 0.00 -79.58 0.00 0.00 -179.96 0.00 0.00 -89.27 0.00 0.00 -90.55 0.00 0.00 -0.84 0.00 0.00 -87.79 0.00 0.00 -86.05 0.00 0.00
